<?xml version="1.0" ?><svg width="20px" height="20px" viewBox="0 -0.08 20 20" data-name="Capa 1" id="Capa_1" xmlns="http://www.w3.org/2000/svg"><path d="M10.28,10.89l.88-1.36a.33.33,0,0,0,0-.33.29.29,0,0,0-.29-.14c-1.75.14-3.1.27-3.1.27a.3.3,0,0,0-.23.13.32.32,0,0,0,0,.27l1,2.95a.29.29,0,0,0,.25.21h0a.29.29,0,0,0,.25-.14l.88-1.35L12,12.77a.37.37,0,0,0,.17.05.31.31,0,0,0,.26-.14.31.31,0,0,0-.09-.42Zm-1.38,1-.68-2,2.09-.18Z"/><path d="M15.69,4.31H4.31A1.61,1.61,0,0,0,2.7,5.92v8a1.61,1.61,0,0,0,1.61,1.61H15.69a1.61,1.61,0,0,0,1.61-1.61v-8A1.61,1.61,0,0,0,15.69,4.31ZM4.31,4.92H15.69a1,1,0,0,1,1,1v.72H3.31V5.92A1,1,0,0,1,4.31,4.92Zm11.38,10H4.31a1,1,0,0,1-1-1V7.25H16.69v6.67A1,1,0,0,1,15.69,14.92Z"/><path d="M4.31,6.18A.34.34,0,1,0,4,5.85.34.34,0,0,0,4.31,6.18Z"/><path d="M5.16,6.18a.34.34,0,0,0,0-.67.34.34,0,0,0,0,.67Z"/><path d="M6,6.18a.34.34,0,1,0-.33-.33A.34.34,0,0,0,6,6.18Z"/></svg>